<mxfile host="app.diagrams.net" modified="2022-04-10T14:38:49.818Z" agent="5.0 (Windows NT 10.0; Win64; x64) AppleWebKit/537.36 (KHTML, like Gecko) Chrome/100.0.4896.60 Safari/537.36" etag="zji-X25r90bm4CKY5g_D" version="17.4.2" type="github">
  <diagram id="RZBq1uMww3y7u_asAbSS" name="Page-1">
    <mxGraphModel dx="868" dy="1619" grid="1" gridSize="10" guides="1" tooltips="1" connect="1" arrows="1" fold="1" page="1" pageScale="1" pageWidth="827" pageHeight="1169" background="#F1FAEE" math="0" shadow="0">
      <root>
        <object label="" oficina="" id="0">
          <mxCell />
        </object>
        <mxCell id="1" parent="0" />
        <mxCell id="aCNo5_MCbhOfw-RDRD6Q-75" value="Diagrama de Classe &#xa;Oficina Automotiva" style="text;align=center;fontStyle=1;verticalAlign=middle;spacingLeft=3;spacingRight=3;strokeColor=#0000FF;rotatable=0;points=[[0,0.5],[1,0.5]];portConstraint=eastwest;fontSize=30;fontColor=#000000;" parent="1" vertex="1">
          <mxGeometry x="460" y="-10" width="300" height="90" as="geometry" />
        </mxCell>
        <mxCell id="cCR9N0uC-qMVrNmAFpcq-2" value="Oficina" style="swimlane;fontStyle=1;align=center;verticalAlign=top;childLayout=stackLayout;horizontal=1;startSize=26;horizontalStack=0;resizeParent=1;resizeLast=0;collapsible=1;marginBottom=0;rounded=0;shadow=0;strokeWidth=1;" parent="1" vertex="1">
          <mxGeometry x="280" y="120" width="160" height="150" as="geometry">
            <mxRectangle x="550" y="140" width="160" height="26" as="alternateBounds" />
          </mxGeometry>
        </mxCell>
        <mxCell id="cCR9N0uC-qMVrNmAFpcq-3" value="-nome:string" style="text;align=left;verticalAlign=top;spacingLeft=4;spacingRight=4;overflow=hidden;rotatable=0;points=[[0,0.5],[1,0.5]];portConstraint=eastwest;" parent="cCR9N0uC-qMVrNmAFpcq-2" vertex="1">
          <mxGeometry y="26" width="160" height="26" as="geometry" />
        </mxCell>
        <mxCell id="cCR9N0uC-qMVrNmAFpcq-4" value="-cnpj:int" style="text;align=left;verticalAlign=top;spacingLeft=4;spacingRight=4;overflow=hidden;rotatable=0;points=[[0,0.5],[1,0.5]];portConstraint=eastwest;rounded=0;shadow=0;html=0;" parent="cCR9N0uC-qMVrNmAFpcq-2" vertex="1">
          <mxGeometry y="52" width="160" height="26" as="geometry" />
        </mxCell>
        <mxCell id="cCR9N0uC-qMVrNmAFpcq-5" value="-endereco:string" style="text;align=left;verticalAlign=top;spacingLeft=4;spacingRight=4;overflow=hidden;rotatable=0;points=[[0,0.5],[1,0.5]];portConstraint=eastwest;rounded=0;shadow=0;html=0;" parent="cCR9N0uC-qMVrNmAFpcq-2" vertex="1">
          <mxGeometry y="78" width="160" height="26" as="geometry" />
        </mxCell>
        <mxCell id="cCR9N0uC-qMVrNmAFpcq-7" value="" style="line;html=1;strokeWidth=1;align=left;verticalAlign=middle;spacingTop=-1;spacingLeft=3;spacingRight=3;rotatable=0;labelPosition=right;points=[];portConstraint=eastwest;" parent="cCR9N0uC-qMVrNmAFpcq-2" vertex="1">
          <mxGeometry y="104" width="160" height="8" as="geometry" />
        </mxCell>
        <mxCell id="1zxtv4SdAcscboItieq_-52" value="&lt;font style=&quot;font-size: 12px&quot;&gt;+&lt;font style=&quot;font-size: 12px&quot;&gt;cadastrarOficina():int&lt;/font&gt;&lt;/font&gt;" style="text;html=1;align=center;verticalAlign=middle;resizable=0;points=[];autosize=1;strokeColor=none;fillColor=none;fontSize=20;" parent="cCR9N0uC-qMVrNmAFpcq-2" vertex="1">
          <mxGeometry y="112" width="160" height="30" as="geometry" />
        </mxCell>
        <mxCell id="1zxtv4SdAcscboItieq_-1" style="endArrow=none;html=1;fontFamily=Helvetica;fontSize=30;fontColor=default;align=center;strokeColor=default;edgeStyle=orthogonalEdgeStyle;" parent="1" source="cCR9N0uC-qMVrNmAFpcq-11" target="cCR9N0uC-qMVrNmAFpcq-2" edge="1">
          <mxGeometry relative="1" as="geometry">
            <Array as="points">
              <mxPoint x="360" y="310" />
              <mxPoint x="360" y="310" />
            </Array>
          </mxGeometry>
        </mxCell>
        <mxCell id="cCR9N0uC-qMVrNmAFpcq-11" value="Funcionario" style="swimlane;fontStyle=1;align=center;verticalAlign=top;childLayout=stackLayout;horizontal=1;startSize=26;horizontalStack=0;resizeParent=1;resizeLast=0;collapsible=1;marginBottom=0;rounded=0;shadow=0;strokeWidth=1;" parent="1" vertex="1">
          <mxGeometry x="280" y="320" width="160" height="200" as="geometry">
            <mxRectangle x="550" y="140" width="160" height="26" as="alternateBounds" />
          </mxGeometry>
        </mxCell>
        <mxCell id="cCR9N0uC-qMVrNmAFpcq-12" value="-matricula:int&#xa;&#xa;" style="text;align=left;verticalAlign=top;spacingLeft=4;spacingRight=4;overflow=hidden;rotatable=0;points=[[0,0.5],[1,0.5]];portConstraint=eastwest;" parent="cCR9N0uC-qMVrNmAFpcq-11" vertex="1">
          <mxGeometry y="26" width="160" height="26" as="geometry" />
        </mxCell>
        <mxCell id="cCR9N0uC-qMVrNmAFpcq-13" value="-nome:int" style="text;align=left;verticalAlign=top;spacingLeft=4;spacingRight=4;overflow=hidden;rotatable=0;points=[[0,0.5],[1,0.5]];portConstraint=eastwest;rounded=0;shadow=0;html=0;" parent="cCR9N0uC-qMVrNmAFpcq-11" vertex="1">
          <mxGeometry y="52" width="160" height="26" as="geometry" />
        </mxCell>
        <mxCell id="cCR9N0uC-qMVrNmAFpcq-14" value="-cargo:int" style="text;align=left;verticalAlign=top;spacingLeft=4;spacingRight=4;overflow=hidden;rotatable=0;points=[[0,0.5],[1,0.5]];portConstraint=eastwest;rounded=0;shadow=0;html=0;" parent="cCR9N0uC-qMVrNmAFpcq-11" vertex="1">
          <mxGeometry y="78" width="160" height="26" as="geometry" />
        </mxCell>
        <mxCell id="cCR9N0uC-qMVrNmAFpcq-15" value="salraio:int" style="text;align=left;verticalAlign=top;spacingLeft=4;spacingRight=4;overflow=hidden;rotatable=0;points=[[0,0.5],[1,0.5]];portConstraint=eastwest;rounded=0;shadow=0;html=0;textDirection=ltr;" parent="cCR9N0uC-qMVrNmAFpcq-11" vertex="1">
          <mxGeometry y="104" width="160" height="26" as="geometry" />
        </mxCell>
        <mxCell id="cCR9N0uC-qMVrNmAFpcq-16" value="" style="line;html=1;strokeWidth=1;align=left;verticalAlign=middle;spacingTop=-1;spacingLeft=3;spacingRight=3;rotatable=0;labelPosition=right;points=[];portConstraint=eastwest;" parent="cCR9N0uC-qMVrNmAFpcq-11" vertex="1">
          <mxGeometry y="130" width="160" height="8" as="geometry" />
        </mxCell>
        <mxCell id="cCR9N0uC-qMVrNmAFpcq-17" value="+contratar():string" style="text;align=left;verticalAlign=top;spacingLeft=4;spacingRight=4;overflow=hidden;rotatable=0;points=[[0,0.5],[1,0.5]];portConstraint=eastwest;" parent="cCR9N0uC-qMVrNmAFpcq-11" vertex="1">
          <mxGeometry y="138" width="160" height="26" as="geometry" />
        </mxCell>
        <mxCell id="cCR9N0uC-qMVrNmAFpcq-18" value="+promover():string" style="text;align=left;verticalAlign=top;spacingLeft=4;spacingRight=4;overflow=hidden;rotatable=0;points=[[0,0.5],[1,0.5]];portConstraint=eastwest;" parent="cCR9N0uC-qMVrNmAFpcq-11" vertex="1">
          <mxGeometry y="164" width="160" height="26" as="geometry" />
        </mxCell>
        <mxCell id="cCR9N0uC-qMVrNmAFpcq-20" value="Gerente" style="swimlane;fontStyle=1;align=center;verticalAlign=top;childLayout=stackLayout;horizontal=1;startSize=26;horizontalStack=0;resizeParent=1;resizeLast=0;collapsible=1;marginBottom=0;rounded=0;shadow=0;strokeWidth=1;" parent="1" vertex="1">
          <mxGeometry x="60" y="600" width="180" height="100" as="geometry">
            <mxRectangle x="550" y="140" width="160" height="26" as="alternateBounds" />
          </mxGeometry>
        </mxCell>
        <mxCell id="cCR9N0uC-qMVrNmAFpcq-21" value="_volumeVendasOficina:int" style="text;align=left;verticalAlign=top;spacingLeft=4;spacingRight=4;overflow=hidden;rotatable=0;points=[[0,0.5],[1,0.5]];portConstraint=eastwest;" parent="cCR9N0uC-qMVrNmAFpcq-20" vertex="1">
          <mxGeometry y="26" width="180" height="26" as="geometry" />
        </mxCell>
        <mxCell id="cCR9N0uC-qMVrNmAFpcq-25" value="" style="line;html=1;strokeWidth=1;align=left;verticalAlign=middle;spacingTop=-1;spacingLeft=3;spacingRight=3;rotatable=0;labelPosition=right;points=[];portConstraint=eastwest;" parent="cCR9N0uC-qMVrNmAFpcq-20" vertex="1">
          <mxGeometry y="52" width="180" height="8" as="geometry" />
        </mxCell>
        <mxCell id="cCR9N0uC-qMVrNmAFpcq-26" value="+cadastrarVolumeVendas():void" style="text;align=left;verticalAlign=top;spacingLeft=4;spacingRight=4;overflow=hidden;rotatable=0;points=[[0,0.5],[1,0.5]];portConstraint=eastwest;" parent="cCR9N0uC-qMVrNmAFpcq-20" vertex="1">
          <mxGeometry y="60" width="180" height="26" as="geometry" />
        </mxCell>
        <mxCell id="1zxtv4SdAcscboItieq_-3" style="edgeStyle=orthogonalEdgeStyle;rounded=0;orthogonalLoop=1;jettySize=auto;html=1;entryX=0.5;entryY=1;entryDx=0;entryDy=0;fontSize=30;startArrow=none;" parent="1" target="cCR9N0uC-qMVrNmAFpcq-11" edge="1">
          <mxGeometry relative="1" as="geometry">
            <mxPoint x="360" y="520" as="sourcePoint" />
          </mxGeometry>
        </mxCell>
        <mxCell id="cCR9N0uC-qMVrNmAFpcq-28" value="Atendente" style="swimlane;fontStyle=1;align=center;verticalAlign=top;childLayout=stackLayout;horizontal=1;startSize=26;horizontalStack=0;resizeParent=1;resizeLast=0;collapsible=1;marginBottom=0;rounded=0;shadow=0;strokeWidth=1;" parent="1" vertex="1">
          <mxGeometry x="280" y="600" width="160" height="100" as="geometry">
            <mxRectangle x="550" y="140" width="160" height="26" as="alternateBounds" />
          </mxGeometry>
        </mxCell>
        <mxCell id="cCR9N0uC-qMVrNmAFpcq-32" value="_comissão:int" style="text;align=left;verticalAlign=top;spacingLeft=4;spacingRight=4;overflow=hidden;rotatable=0;points=[[0,0.5],[1,0.5]];portConstraint=eastwest;rounded=0;shadow=0;html=0;textDirection=ltr;" parent="cCR9N0uC-qMVrNmAFpcq-28" vertex="1">
          <mxGeometry y="26" width="160" height="26" as="geometry" />
        </mxCell>
        <mxCell id="cCR9N0uC-qMVrNmAFpcq-33" value="" style="line;html=1;strokeWidth=1;align=left;verticalAlign=middle;spacingTop=-1;spacingLeft=3;spacingRight=3;rotatable=0;labelPosition=right;points=[];portConstraint=eastwest;" parent="cCR9N0uC-qMVrNmAFpcq-28" vertex="1">
          <mxGeometry y="52" width="160" height="8" as="geometry" />
        </mxCell>
        <mxCell id="cCR9N0uC-qMVrNmAFpcq-34" value="+registroAtendente():int" style="text;align=left;verticalAlign=top;spacingLeft=4;spacingRight=4;overflow=hidden;rotatable=0;points=[[0,0.5],[1,0.5]];portConstraint=eastwest;" parent="cCR9N0uC-qMVrNmAFpcq-28" vertex="1">
          <mxGeometry y="60" width="160" height="26" as="geometry" />
        </mxCell>
        <mxCell id="1zxtv4SdAcscboItieq_-6" style="edgeStyle=orthogonalEdgeStyle;rounded=0;orthogonalLoop=1;jettySize=auto;html=1;fontSize=30;startArrow=none;" parent="1" edge="1">
          <mxGeometry relative="1" as="geometry">
            <mxPoint x="420" y="530" as="targetPoint" />
            <mxPoint x="420" y="540" as="sourcePoint" />
            <Array as="points">
              <mxPoint x="420" y="530" />
            </Array>
          </mxGeometry>
        </mxCell>
        <mxCell id="cCR9N0uC-qMVrNmAFpcq-36" value="Mecanico" style="swimlane;fontStyle=1;align=center;verticalAlign=top;childLayout=stackLayout;horizontal=1;startSize=26;horizontalStack=0;resizeParent=1;resizeLast=0;collapsible=1;marginBottom=0;rounded=0;shadow=0;strokeWidth=1;" parent="1" vertex="1">
          <mxGeometry x="480" y="600" width="150" height="100" as="geometry">
            <mxRectangle x="550" y="140" width="160" height="26" as="alternateBounds" />
          </mxGeometry>
        </mxCell>
        <mxCell id="cCR9N0uC-qMVrNmAFpcq-37" value="-matricula:int&#xa;&#xa;" style="text;align=left;verticalAlign=top;spacingLeft=4;spacingRight=4;overflow=hidden;rotatable=0;points=[[0,0.5],[1,0.5]];portConstraint=eastwest;" parent="cCR9N0uC-qMVrNmAFpcq-36" vertex="1">
          <mxGeometry y="26" width="150" height="26" as="geometry" />
        </mxCell>
        <mxCell id="cCR9N0uC-qMVrNmAFpcq-41" value="" style="line;html=1;strokeWidth=1;align=left;verticalAlign=middle;spacingTop=-1;spacingLeft=3;spacingRight=3;rotatable=0;labelPosition=right;points=[];portConstraint=eastwest;" parent="cCR9N0uC-qMVrNmAFpcq-36" vertex="1">
          <mxGeometry y="52" width="150" height="8" as="geometry" />
        </mxCell>
        <mxCell id="cCR9N0uC-qMVrNmAFpcq-42" value="-cadastrarOficina():void" style="text;align=left;verticalAlign=top;spacingLeft=4;spacingRight=4;overflow=hidden;rotatable=0;points=[[0,0.5],[1,0.5]];portConstraint=eastwest;" parent="cCR9N0uC-qMVrNmAFpcq-36" vertex="1">
          <mxGeometry y="60" width="150" height="26" as="geometry" />
        </mxCell>
        <mxCell id="1zxtv4SdAcscboItieq_-8" value="Cliente" style="swimlane;fontStyle=1;align=center;verticalAlign=top;childLayout=stackLayout;horizontal=1;startSize=26;horizontalStack=0;resizeParent=1;resizeLast=0;collapsible=1;marginBottom=0;rounded=0;shadow=0;strokeWidth=1;" parent="1" vertex="1">
          <mxGeometry x="1041" y="470" width="200" height="260" as="geometry">
            <mxRectangle x="550" y="140" width="160" height="26" as="alternateBounds" />
          </mxGeometry>
        </mxCell>
        <mxCell id="1zxtv4SdAcscboItieq_-9" value="-nomeCliente:string" style="text;align=left;verticalAlign=top;spacingLeft=4;spacingRight=4;overflow=hidden;rotatable=0;points=[[0,0.5],[1,0.5]];portConstraint=eastwest;" parent="1zxtv4SdAcscboItieq_-8" vertex="1">
          <mxGeometry y="26" width="200" height="26" as="geometry" />
        </mxCell>
        <mxCell id="1zxtv4SdAcscboItieq_-10" value="-endereco:string" style="text;align=left;verticalAlign=top;spacingLeft=4;spacingRight=4;overflow=hidden;rotatable=0;points=[[0,0.5],[1,0.5]];portConstraint=eastwest;rounded=0;shadow=0;html=0;" parent="1zxtv4SdAcscboItieq_-8" vertex="1">
          <mxGeometry y="52" width="200" height="26" as="geometry" />
        </mxCell>
        <mxCell id="1zxtv4SdAcscboItieq_-11" value="-telefone:float" style="text;align=left;verticalAlign=top;spacingLeft=4;spacingRight=4;overflow=hidden;rotatable=0;points=[[0,0.5],[1,0.5]];portConstraint=eastwest;rounded=0;shadow=0;html=0;" parent="1zxtv4SdAcscboItieq_-8" vertex="1">
          <mxGeometry y="78" width="200" height="26" as="geometry" />
        </mxCell>
        <mxCell id="1zxtv4SdAcscboItieq_-12" value="-dataNascimento:int&#xa;&#xa;-email:sring&#xa;&#xa;-email:string" style="text;align=left;verticalAlign=top;spacingLeft=4;spacingRight=4;overflow=hidden;rotatable=0;points=[[0,0.5],[1,0.5]];portConstraint=eastwest;rounded=0;shadow=0;html=0;textDirection=ltr;" parent="1zxtv4SdAcscboItieq_-8" vertex="1">
          <mxGeometry y="104" width="200" height="74" as="geometry" />
        </mxCell>
        <mxCell id="1zxtv4SdAcscboItieq_-13" value="" style="line;html=1;strokeWidth=1;align=left;verticalAlign=middle;spacingTop=-1;spacingLeft=3;spacingRight=3;rotatable=0;labelPosition=right;points=[];portConstraint=eastwest;" parent="1zxtv4SdAcscboItieq_-8" vertex="1">
          <mxGeometry y="178" width="200" height="8" as="geometry" />
        </mxCell>
        <mxCell id="1zxtv4SdAcscboItieq_-33" value="+cadastrarCliente(...)&#xa;+removerCliente(...)&#xa;+verificarLogin():boll" style="text;align=left;verticalAlign=top;spacingLeft=4;spacingRight=4;overflow=hidden;rotatable=0;points=[[0,0.5],[1,0.5]];portConstraint=eastwest;" parent="1zxtv4SdAcscboItieq_-8" vertex="1">
          <mxGeometry y="186" width="200" height="64" as="geometry" />
        </mxCell>
        <mxCell id="1zxtv4SdAcscboItieq_-16" value="Orcamento" style="swimlane;fontStyle=1;align=center;verticalAlign=top;childLayout=stackLayout;horizontal=1;startSize=26;horizontalStack=0;resizeParent=1;resizeLast=0;collapsible=1;marginBottom=0;rounded=0;shadow=0;strokeWidth=1;" parent="1" vertex="1">
          <mxGeometry x="790" y="520" width="180" height="290" as="geometry">
            <mxRectangle x="550" y="140" width="160" height="26" as="alternateBounds" />
          </mxGeometry>
        </mxCell>
        <mxCell id="1zxtv4SdAcscboItieq_-17" value="-matricula_ID:int" style="text;align=left;verticalAlign=top;spacingLeft=4;spacingRight=4;overflow=hidden;rotatable=0;points=[[0,0.5],[1,0.5]];portConstraint=eastwest;" parent="1zxtv4SdAcscboItieq_-16" vertex="1">
          <mxGeometry y="26" width="180" height="26" as="geometry" />
        </mxCell>
        <mxCell id="1zxtv4SdAcscboItieq_-18" value="-nomeMecanico:string" style="text;align=left;verticalAlign=top;spacingLeft=4;spacingRight=4;overflow=hidden;rotatable=0;points=[[0,0.5],[1,0.5]];portConstraint=eastwest;rounded=0;shadow=0;html=0;" parent="1zxtv4SdAcscboItieq_-16" vertex="1">
          <mxGeometry y="52" width="180" height="26" as="geometry" />
        </mxCell>
        <mxCell id="1zxtv4SdAcscboItieq_-19" value="-dataEntrada:Dtaetime" style="text;align=left;verticalAlign=top;spacingLeft=4;spacingRight=4;overflow=hidden;rotatable=0;points=[[0,0.5],[1,0.5]];portConstraint=eastwest;rounded=0;shadow=0;html=0;" parent="1zxtv4SdAcscboItieq_-16" vertex="1">
          <mxGeometry y="78" width="180" height="26" as="geometry" />
        </mxCell>
        <mxCell id="1zxtv4SdAcscboItieq_-20" value="-aprovado:boll&#xa;&#xa;-finalizado:boll" style="text;align=left;verticalAlign=top;spacingLeft=4;spacingRight=4;overflow=hidden;rotatable=0;points=[[0,0.5],[1,0.5]];portConstraint=eastwest;rounded=0;shadow=0;html=0;textDirection=ltr;" parent="1zxtv4SdAcscboItieq_-16" vertex="1">
          <mxGeometry y="104" width="180" height="56" as="geometry" />
        </mxCell>
        <mxCell id="1zxtv4SdAcscboItieq_-21" value="" style="line;html=1;strokeWidth=1;align=left;verticalAlign=middle;spacingTop=-1;spacingLeft=3;spacingRight=3;rotatable=0;labelPosition=right;points=[];portConstraint=eastwest;" parent="1zxtv4SdAcscboItieq_-16" vertex="1">
          <mxGeometry y="160" width="180" height="8" as="geometry" />
        </mxCell>
        <mxCell id="1zxtv4SdAcscboItieq_-22" value="+adicionarOrcamento(...)" style="text;align=left;verticalAlign=top;spacingLeft=4;spacingRight=4;overflow=hidden;rotatable=0;points=[[0,0.5],[1,0.5]];portConstraint=eastwest;" parent="1zxtv4SdAcscboItieq_-16" vertex="1">
          <mxGeometry y="168" width="180" height="26" as="geometry" />
        </mxCell>
        <mxCell id="1zxtv4SdAcscboItieq_-23" value="+aprovado(...)&#xa;&#xa;+recusado(...)&#xa;&#xa;+finalizado(...)" style="text;align=left;verticalAlign=top;spacingLeft=4;spacingRight=4;overflow=hidden;rotatable=0;points=[[0,0.5],[1,0.5]];portConstraint=eastwest;" parent="1zxtv4SdAcscboItieq_-16" vertex="1">
          <mxGeometry y="194" width="180" height="96" as="geometry" />
        </mxCell>
        <mxCell id="1zxtv4SdAcscboItieq_-24" value="Veiculo" style="swimlane;fontStyle=1;align=center;verticalAlign=top;childLayout=stackLayout;horizontal=1;startSize=26;horizontalStack=0;resizeParent=1;resizeLast=0;collapsible=1;marginBottom=0;rounded=0;shadow=0;strokeWidth=1;" parent="1" vertex="1">
          <mxGeometry x="880" y="110" width="150" height="320" as="geometry">
            <mxRectangle x="550" y="140" width="160" height="26" as="alternateBounds" />
          </mxGeometry>
        </mxCell>
        <mxCell id="1zxtv4SdAcscboItieq_-25" value="-veiculo_ID:Iint" style="text;align=left;verticalAlign=top;spacingLeft=4;spacingRight=4;overflow=hidden;rotatable=0;points=[[0,0.5],[1,0.5]];portConstraint=eastwest;" parent="1zxtv4SdAcscboItieq_-24" vertex="1">
          <mxGeometry y="26" width="150" height="26" as="geometry" />
        </mxCell>
        <mxCell id="1zxtv4SdAcscboItieq_-26" value="-marca:string" style="text;align=left;verticalAlign=top;spacingLeft=4;spacingRight=4;overflow=hidden;rotatable=0;points=[[0,0.5],[1,0.5]];portConstraint=eastwest;rounded=0;shadow=0;html=0;" parent="1zxtv4SdAcscboItieq_-24" vertex="1">
          <mxGeometry y="52" width="150" height="26" as="geometry" />
        </mxCell>
        <mxCell id="1zxtv4SdAcscboItieq_-27" value="-cor:string" style="text;align=left;verticalAlign=top;spacingLeft=4;spacingRight=4;overflow=hidden;rotatable=0;points=[[0,0.5],[1,0.5]];portConstraint=eastwest;rounded=0;shadow=0;html=0;" parent="1zxtv4SdAcscboItieq_-24" vertex="1">
          <mxGeometry y="78" width="150" height="26" as="geometry" />
        </mxCell>
        <mxCell id="1zxtv4SdAcscboItieq_-28" value="-modelo:string" style="text;align=left;verticalAlign=top;spacingLeft=4;spacingRight=4;overflow=hidden;rotatable=0;points=[[0,0.5],[1,0.5]];portConstraint=eastwest;rounded=0;shadow=0;html=0;textDirection=ltr;" parent="1zxtv4SdAcscboItieq_-24" vertex="1">
          <mxGeometry y="104" width="150" height="26" as="geometry" />
        </mxCell>
        <mxCell id="1zxtv4SdAcscboItieq_-30" value="-anoFabricacao:int" style="text;align=left;verticalAlign=top;spacingLeft=4;spacingRight=4;overflow=hidden;rotatable=0;points=[[0,0.5],[1,0.5]];portConstraint=eastwest;" parent="1zxtv4SdAcscboItieq_-24" vertex="1">
          <mxGeometry y="130" width="150" height="26" as="geometry" />
        </mxCell>
        <mxCell id="1zxtv4SdAcscboItieq_-31" value="-numeroChassi:string&#xa;&#xa;-palca:int" style="text;align=left;verticalAlign=top;spacingLeft=4;spacingRight=4;overflow=hidden;rotatable=0;points=[[0,0.5],[1,0.5]];portConstraint=eastwest;" parent="1zxtv4SdAcscboItieq_-24" vertex="1">
          <mxGeometry y="156" width="150" height="64" as="geometry" />
        </mxCell>
        <mxCell id="1zxtv4SdAcscboItieq_-29" value="" style="line;html=1;strokeWidth=1;align=left;verticalAlign=middle;spacingTop=-1;spacingLeft=3;spacingRight=3;rotatable=0;labelPosition=right;points=[];portConstraint=eastwest;" parent="1zxtv4SdAcscboItieq_-24" vertex="1">
          <mxGeometry y="220" width="150" height="10" as="geometry" />
        </mxCell>
        <mxCell id="1zxtv4SdAcscboItieq_-35" value="+adicionarVeiculo(...)&#xa;&#xa;+atualizarVeiculo(...)&#xa;&#xa;+apagarVeiculo(...)" style="text;align=left;verticalAlign=top;spacingLeft=4;spacingRight=4;overflow=hidden;rotatable=0;points=[[0,0.5],[1,0.5]];portConstraint=eastwest;" parent="1zxtv4SdAcscboItieq_-24" vertex="1">
          <mxGeometry y="230" width="150" height="90" as="geometry" />
        </mxCell>
        <mxCell id="1zxtv4SdAcscboItieq_-38" value="Servico " style="swimlane;fontStyle=1;align=center;verticalAlign=top;childLayout=stackLayout;horizontal=1;startSize=26;horizontalStack=0;resizeParent=1;resizeLast=0;collapsible=1;marginBottom=0;rounded=0;shadow=0;strokeWidth=1;" parent="1" vertex="1">
          <mxGeometry x="580" y="90" width="180" height="462" as="geometry">
            <mxRectangle x="550" y="140" width="160" height="26" as="alternateBounds" />
          </mxGeometry>
        </mxCell>
        <mxCell id="1zxtv4SdAcscboItieq_-39" value="-revisaocomponentesfreios(...)" style="text;align=left;verticalAlign=top;spacingLeft=4;spacingRight=4;overflow=hidden;rotatable=0;points=[[0,0.5],[1,0.5]];portConstraint=eastwest;" parent="1zxtv4SdAcscboItieq_-38" vertex="1">
          <mxGeometry y="26" width="180" height="26" as="geometry" />
        </mxCell>
        <mxCell id="1zxtv4SdAcscboItieq_-40" value="-manutencaoEmbreagem(...)&#xa;&#xa;-alinhamento:(...)" style="text;align=left;verticalAlign=top;spacingLeft=4;spacingRight=4;overflow=hidden;rotatable=0;points=[[0,0.5],[1,0.5]];portConstraint=eastwest;rounded=0;shadow=0;html=0;" parent="1zxtv4SdAcscboItieq_-38" vertex="1">
          <mxGeometry y="52" width="180" height="58" as="geometry" />
        </mxCell>
        <mxCell id="1zxtv4SdAcscboItieq_-41" value="-balanceamento(...)" style="text;align=left;verticalAlign=top;spacingLeft=4;spacingRight=4;overflow=hidden;rotatable=0;points=[[0,0.5],[1,0.5]];portConstraint=eastwest;rounded=0;shadow=0;html=0;" parent="1zxtv4SdAcscboItieq_-38" vertex="1">
          <mxGeometry y="110" width="180" height="22" as="geometry" />
        </mxCell>
        <mxCell id="1zxtv4SdAcscboItieq_-43" value="-trocadeoleoefiltro:(...)" style="text;align=left;verticalAlign=top;spacingLeft=4;spacingRight=4;overflow=hidden;rotatable=0;points=[[0,0.5],[1,0.5]];portConstraint=eastwest;" parent="1zxtv4SdAcscboItieq_-38" vertex="1">
          <mxGeometry y="132" width="180" height="24" as="geometry" />
        </mxCell>
        <mxCell id="1zxtv4SdAcscboItieq_-44" value="-instalacaodeAcessorios(...)&#xa;&#xa;-motorecaixa:(...)&#xa;&#xa;-pintura:(...)&#xa;&#xa;-trocaoleo:(...)&#xa;&#xa;-trocaFiltros:(...)" style="text;align=left;verticalAlign=top;spacingLeft=4;spacingRight=4;overflow=hidden;rotatable=0;points=[[0,0.5],[1,0.5]];portConstraint=eastwest;" parent="1zxtv4SdAcscboItieq_-38" vertex="1">
          <mxGeometry y="156" width="180" height="130" as="geometry" />
        </mxCell>
        <mxCell id="1zxtv4SdAcscboItieq_-45" value="" style="line;html=1;strokeWidth=1;align=left;verticalAlign=middle;spacingTop=-1;spacingLeft=3;spacingRight=3;rotatable=0;labelPosition=right;points=[];portConstraint=eastwest;" parent="1zxtv4SdAcscboItieq_-38" vertex="1">
          <mxGeometry y="286" width="180" height="60" as="geometry" />
        </mxCell>
        <mxCell id="1zxtv4SdAcscboItieq_-46" value="+maoDeObra:float&#xa;                                              &#xa;+mecanicoResponsavel:string" style="text;align=left;verticalAlign=top;spacingLeft=4;spacingRight=4;overflow=hidden;rotatable=0;points=[[0,0.5],[1,0.5]];portConstraint=eastwest;" parent="1zxtv4SdAcscboItieq_-38" vertex="1">
          <mxGeometry y="346" width="180" height="44" as="geometry" />
        </mxCell>
        <mxCell id="1zxtv4SdAcscboItieq_-56" value="" style="endArrow=none;html=1;rounded=0;fontSize=12;exitX=1;exitY=0.5;exitDx=0;exitDy=0;" parent="1" source="cCR9N0uC-qMVrNmAFpcq-5" edge="1">
          <mxGeometry width="50" height="50" relative="1" as="geometry">
            <mxPoint x="450" y="250" as="sourcePoint" />
            <mxPoint x="580" y="211" as="targetPoint" />
          </mxGeometry>
        </mxCell>
        <mxCell id="O1uCx1TAcHvGke07abIW-1" value="0 *" style="text;html=1;strokeColor=none;fillColor=none;align=center;verticalAlign=middle;whiteSpace=wrap;rounded=0;" parent="1" vertex="1">
          <mxGeometry x="320" y="270" width="60" height="90" as="geometry" />
        </mxCell>
        <mxCell id="O1uCx1TAcHvGke07abIW-2" value="1" style="text;html=1;strokeColor=none;fillColor=none;align=center;verticalAlign=middle;whiteSpace=wrap;rounded=0;" parent="1" vertex="1">
          <mxGeometry x="320" y="270" width="60" height="30" as="geometry" />
        </mxCell>
        <mxCell id="O1uCx1TAcHvGke07abIW-8" value="" style="endArrow=open;endFill=1;endSize=7.15;html=1;rounded=0;shape=flexArrow;width=2;endWidth=12;exitX=0.5;exitY=0;exitDx=0;exitDy=0;" parent="1" source="cCR9N0uC-qMVrNmAFpcq-20" edge="1">
          <mxGeometry width="160" relative="1" as="geometry">
            <mxPoint x="150" y="572" as="sourcePoint" />
            <mxPoint x="290" y="520" as="targetPoint" />
            <Array as="points">
              <mxPoint x="260" y="530" />
            </Array>
          </mxGeometry>
        </mxCell>
        <mxCell id="O1uCx1TAcHvGke07abIW-10" value="" style="endArrow=open;endFill=1;endSize=7.15;html=1;rounded=0;shape=flexArrow;width=2;endWidth=12;exitX=0.5;exitY=0;exitDx=0;exitDy=0;" parent="1" edge="1">
          <mxGeometry width="160" relative="1" as="geometry">
            <mxPoint x="340" y="600" as="sourcePoint" />
            <mxPoint x="340" y="520" as="targetPoint" />
          </mxGeometry>
        </mxCell>
        <mxCell id="O1uCx1TAcHvGke07abIW-11" value="" style="endArrow=open;endFill=1;endSize=7.15;html=1;rounded=0;shape=flexArrow;width=2;endWidth=12;entryX=1;entryY=1;entryDx=0;entryDy=0;" parent="1" target="cCR9N0uC-qMVrNmAFpcq-11" edge="1">
          <mxGeometry width="160" relative="1" as="geometry">
            <mxPoint x="560" y="600" as="sourcePoint" />
            <mxPoint x="700" y="520" as="targetPoint" />
            <Array as="points">
              <mxPoint x="460" y="530" />
            </Array>
          </mxGeometry>
        </mxCell>
        <mxCell id="O1uCx1TAcHvGke07abIW-13" value="" style="line;strokeWidth=1;rotatable=0;dashed=0;labelPosition=right;align=left;verticalAlign=middle;spacingTop=0;spacingLeft=6;points=[];portConstraint=eastwest;" parent="1" vertex="1">
          <mxGeometry x="760" y="230" width="120" height="80" as="geometry" />
        </mxCell>
        <mxCell id="O1uCx1TAcHvGke07abIW-14" value="" style="line;strokeWidth=1;rotatable=0;dashed=0;labelPosition=right;align=left;verticalAlign=middle;spacingTop=0;spacingLeft=6;points=[];portConstraint=eastwest;" parent="1" vertex="1">
          <mxGeometry x="970" y="520" width="71" height="80" as="geometry" />
        </mxCell>
        <mxCell id="O1uCx1TAcHvGke07abIW-23" value="" style="shape=link;html=1;rounded=0;width=0;exitX=0.65;exitY=0;exitDx=0;exitDy=0;exitPerimeter=0;entryX=0.187;entryY=1.033;entryDx=0;entryDy=0;entryPerimeter=0;" parent="1" source="1zxtv4SdAcscboItieq_-16" target="1zxtv4SdAcscboItieq_-35" edge="1">
          <mxGeometry width="100" relative="1" as="geometry">
            <mxPoint x="830" y="480" as="sourcePoint" />
            <mxPoint x="940" y="440" as="targetPoint" />
            <Array as="points" />
          </mxGeometry>
        </mxCell>
      </root>
    </mxGraphModel>
  </diagram>
</mxfile>
